<svg xmlns="http://www.w3.org/2000/svg" xmlns:xlink="http://www.w3.org/1999/xlink" width="72" height="72" viewBox="0 0 72 72">
  <defs>
    <clipPath id="clip-path">
      <path id="path2415" d="M0-682.665H72v72H0Z" transform="translate(0 682.665)" fill="none"/>
    </clipPath>
  </defs>
  <g id="g2409" transform="translate(0 682.665)">
    <g id="g2411" transform="translate(0 -682.665)">
      <g id="g2413" clip-path="url(#clip-path)">
        <g id="g2419" transform="translate(29.236 29.236)">
          <path id="path2421" d="M-229.461-114.73A13.527,13.527,0,0,1-242.988-101.2a13.527,13.527,0,0,1-13.527-13.527,13.527,13.527,0,0,1,13.527-13.527A13.527,13.527,0,0,1-229.461-114.73Z" transform="translate(256.515 128.257)" fill="none" stroke="#dfe527" stroke-linecap="round" stroke-linejoin="round" stroke-width="2"/>
        </g>
        <g id="g2423" transform="translate(55.744 55.744)">
          <path id="path2425" d="M-123.33-123.33h0a2.255,2.255,0,0,1-3.188,0l-10.692-10.692a2.255,2.255,0,0,1,0-3.188,2.255,2.255,0,0,1,3.188,0l10.692,10.692A2.255,2.255,0,0,1-123.33-123.33Z" transform="translate(137.871 137.871)" fill="none" stroke="#dfe527" stroke-linecap="round" stroke-linejoin="round" stroke-width="2"/>
        </g>
        <g id="g2427" transform="translate(52.487 52.487)">
          <path id="path2429" d="M0,0,3.8,3.8" fill="none" stroke="#dfe527" stroke-linecap="round" stroke-linejoin="round" stroke-width="2"/>
        </g>
        <g id="g2431" transform="translate(58.545 58.545)">
          <path id="path2433" d="M0-19.121l2.254-2.254" transform="translate(0 21.376)" fill="none" stroke="#dfe527" stroke-linecap="round" stroke-linejoin="round" stroke-width="2"/>
        </g>
        <g id="g2443" transform="translate(1.055 7.818)">
          <path id="path2445" d="M-210.338-363.313h-21.418a3.382,3.382,0,0,1-3.382-3.382v-36.073a3.382,3.382,0,0,1,3.382-3.382h54.109a3.382,3.382,0,0,1,3.382,3.382V-366.7a3.383,3.383,0,0,1-2.254,3.189" transform="translate(235.138 406.15)" fill="none" stroke="#dfe527" stroke-linecap="round" stroke-linejoin="round" stroke-width="2"/>
        </g>
        <g id="g2447" transform="translate(21.346 1.055)">
          <path id="path2449" d="M0-57.366l1.741-5.222a2.255,2.255,0,0,1,2.139-1.542H16.411a2.255,2.255,0,0,1,2.139,1.542l1.741,5.222" transform="translate(0 64.129)" fill="none" stroke="#dfe527" stroke-linecap="round" stroke-linejoin="round" stroke-width="2"/>
        </g>
        <g id="g2451" transform="translate(5.564 7.818)">
          <path id="path2453" d="M-185.839-210.339H-197.6a10.145,10.145,0,0,1-10.145-10.145v-14.655" transform="translate(207.75 235.139)" fill="none" stroke="#dfe527" stroke-linecap="round" stroke-linejoin="round" stroke-width="2"/>
        </g>
        <g id="g2455" transform="translate(55.164 7.818)">
          <path id="path2457" d="M-19.118,0V14.655a10.1,10.1,0,0,1-2.254,6.377" transform="translate(21.372)" fill="none" stroke="#dfe527" stroke-linecap="round" stroke-linejoin="round" stroke-width="2"/>
        </g>
        <g id="g2459" transform="translate(25.855 21.346)">
          <path id="path2461" d="M-86.048-38.243h-9.018a1.127,1.127,0,0,1-1.127-1.127v-2.255a1.127,1.127,0,0,1,1.127-1.127h9.018a1.127,1.127,0,0,1,1.127,1.127v2.255A1.127,1.127,0,0,1-86.048-38.243Z" transform="translate(96.193 42.752)" fill="none" stroke="#dfe527" stroke-linecap="round" stroke-linejoin="round" stroke-width="2"/>
        </g>
      </g>
    </g>
  </g>
</svg>
