<svg xmlns="http://www.w3.org/2000/svg" xmlns:xlink="http://www.w3.org/1999/xlink" width="72" height="72" viewBox="0 0 72 72">
  <defs>
    <clipPath id="clip-path">
      <path id="path4105" d="M0-682.665H72v72H0Z" transform="translate(0 682.665)"/>
    </clipPath>
  </defs>
  <g id="g4095" transform="translate(0 682.665)">
    <g id="g4097" transform="translate(21.314 -650.654)">
      <path id="path4099" d="M0-114.977v-13.556" transform="translate(0 128.533)" fill="none" stroke="#dfe527" stroke-linecap="round" stroke-linejoin="round" stroke-width="2"/>
    </g>
    <g id="g4101" transform="translate(0 -682.665)">
      <g id="g4103" clip-path="url(#clip-path)">
        <g id="g4109" transform="translate(30.351 32.011)">
          <path id="path4111" d="M-76.652-38.325a4.517,4.517,0,0,0-1.324-3.2,4.517,4.517,0,0,0-3.195-1.323,4.518,4.518,0,0,0-3.195,1.323,4.517,4.517,0,0,0-1.324,3.2v4.519a4.516,4.516,0,0,0,1.324,3.195,4.519,4.519,0,0,0,3.195,1.324,4.518,4.518,0,0,0,3.195-1.324,4.516,4.516,0,0,0,1.324-3.195Z" transform="translate(85.689 42.844)" fill="none" stroke="#dfe527" stroke-linecap="round" stroke-linejoin="round" stroke-width="2"/>
        </g>
        <g id="g4113" transform="translate(17.925 32.011)">
          <path id="path4115" d="M0,0H6.778" fill="none" stroke="#dfe527" stroke-linecap="round" stroke-linejoin="round" stroke-width="2"/>
        </g>
        <g id="g4117" transform="translate(46.167 32.011)">
          <path id="path4119" d="M0-114.977v-13.556H3.389a4.518,4.518,0,0,1,4.519,4.519A4.519,4.519,0,0,1,3.389-119.5H0" transform="translate(0 128.533)" fill="none" stroke="#dfe527" stroke-linecap="round" stroke-linejoin="round" stroke-width="2"/>
        </g>
        <g id="g4121" transform="translate(2.109 3.768)">
          <path id="path4123" d="M-287.442,0l13.494,17.06,20.4,7.562-12.056,18.107-.889,21.734-20.946-5.871-20.945,5.871-.889-21.734-12.056-18.107,20.4-7.562Z" transform="translate(321.333)" fill="none" stroke="#dfe527" stroke-linecap="round" stroke-linejoin="round" stroke-width="2"/>
        </g>
      </g>
    </g>
  </g>
</svg>
