<svg xmlns="http://www.w3.org/2000/svg" width="66.068" height="72.133" viewBox="0 0 66.068 72.133">
  <g id="agreement" transform="translate(-27.566 -6.367)">
    <path id="Path_3635" data-name="Path 3635" d="M142.557,393.354a26.145,26.145,0,0,1,18.6,7.613,25.527,25.527,0,0,1-37.194,0A26.144,26.144,0,0,1,142.557,393.354Z" transform="translate(-81.957 -331.508)" fill="none" stroke="#dfe527" stroke-linecap="round" stroke-linejoin="round" stroke-width="2"/>
    <g id="Group_8653" data-name="Group 8653" transform="translate(46.624 37.816)">
      <path id="Path_3636" data-name="Path 3636" d="M180.682,228.322l-2.735-2.146a2.231,2.231,0,0,1,.327,3.2,2.266,2.266,0,0,1-3.123.282l-2.719-2.133a2.231,2.231,0,0,1,.327,3.2,2.266,2.266,0,0,1-3.123.282l-10.522-8.255a41.706,41.706,0,0,0-2.343,14.152c0,14.1,6.257,25.531,13.976,25.531S184.723,251,184.723,236.9a44.723,44.723,0,0,0-.89-8.979A2.23,2.23,0,0,1,180.682,228.322Z" transform="translate(-156.771 -222.743)" fill="none" stroke="#dfe527" stroke-linecap="round" stroke-linejoin="round" stroke-width="2"/>
    </g>
    <line id="Line_598" data-name="Line 598" x2="50.515" transform="translate(35.342 51.969)" fill="none" stroke="#dfe527" stroke-linecap="round" stroke-linejoin="round" stroke-width="2"/>
    <line id="Line_599" data-name="Line 599" y1="30.545" transform="translate(60.6 46.681)" fill="none" stroke="#dfe527" stroke-linecap="round" stroke-linejoin="round" stroke-width="2"/>
    <line id="Line_600" data-name="Line 600" x1="11.771" y1="9.235" transform="translate(58.783 28.503)" fill="none" stroke="#dfe527" stroke-linecap="round" stroke-linejoin="round" stroke-width="2"/>
    <line id="Line_601" data-name="Line 601" x1="11.771" y1="9.235" transform="translate(56.029 32.014)" fill="none" stroke="#dfe527" stroke-linecap="round" stroke-linejoin="round" stroke-width="2"/>
    <line id="Line_602" data-name="Line 602" x1="9.01" y1="7.069" transform="translate(53.274 35.524)" fill="none" stroke="#dfe527" stroke-linecap="round" stroke-linejoin="round" stroke-width="2"/>
    <path id="Path_3637" data-name="Path 3637" d="M45.345,10.963,41.461,7.784A1.255,1.255,0,0,0,39.7,7.96L28.851,21.209a1.255,1.255,0,0,0,.176,1.766l3.884,3.179a1.255,1.255,0,0,0,1.766-.176L45.521,12.729A1.255,1.255,0,0,0,45.345,10.963Z" fill="none" stroke="#dfe527" stroke-linecap="round" stroke-linejoin="round" stroke-width="2"/>
    <path id="Path_3638" data-name="Path 3638" d="M227.595,49.492l-.278.218c-2.409,1.89-5.887,2.312-8.214,2.357a15.745,15.745,0,0,0-5.487,1.1l-1.629.644h0l-5.868,2.318a2.19,2.19,0,0,0-1.25,2.789,2.231,2.231,0,0,0,2.562,1.374c.735-.155,1.5-.3,2.274-.424a3.2,3.2,0,0,1,2.7.814c.866.706,3.6,2.827,12.261,9.625a2.229,2.229,0,0,1,.827,2.09c4.3-3.692,5.281-5.923,9.957-9.591L237.3,61.35Z" transform="translate(-151.355 -36.078)" fill="none" stroke="#dfe527" stroke-linecap="round" stroke-linejoin="round" stroke-width="2"/>
    <path id="Path_3639" data-name="Path 3639" d="M114.25,70.119h0c-8.665-6.8-11.4-8.92-12.261-9.625a3.2,3.2,0,0,0-2.7-.814c-.771.125-1.538.269-2.274.424a2.231,2.231,0,0,1-2.562-1.374,2.19,2.19,0,0,1,1.25-2.789l5.868-2.318h0l-1.629-.644a15.744,15.744,0,0,0-5.487-1.1c-2.326-.044-5.8-.466-8.214-2.357l-.317-.249L76.22,61.132l1.892,1.484A44.084,44.084,0,0,1,83.9,68.11a43.245,43.245,0,0,0,5.7,5.359l10.824,8.492a2.266,2.266,0,0,0,3.123-.282,2.231,2.231,0,0,0-.327-3.2l2.719,2.133a2.266,2.266,0,0,0,3.123-.282,2.231,2.231,0,0,0-.327-3.2l2.735,2.146a2.231,2.231,0,0,0,3.181-.443,2.266,2.266,0,0,0-.469-3.1l-2.693-2.113a2.231,2.231,0,0,0,3.582-1.421h0A2.238,2.238,0,0,0,114.25,70.119Z" transform="translate(-40.941 -35.89)" fill="none" stroke="#dfe527" stroke-linecap="round" stroke-linejoin="round" stroke-width="2"/>
    <path id="Path_3640" data-name="Path 3640" d="M370.78,12.4,367.149,7.96a1.255,1.255,0,0,0-1.766-.176L361.5,10.963a1.255,1.255,0,0,0-.176,1.766l10.845,13.249a1.255,1.255,0,0,0,1.766.176l3.884-3.179a1.255,1.255,0,0,0,.176-1.766l-4.09-5" transform="translate(-285.645)" fill="none" stroke="#dfe527" stroke-linecap="round" stroke-linejoin="round" stroke-width="2"/>
    <path id="Path_3641" data-name="Path 3641" d="M124.763,214.234a25.558,25.558,0,0,0-7.468-26.2,43.807,43.807,0,0,1-3.5,3.363h0a2.231,2.231,0,0,1-3.582,1.421l2.693,2.113a2.266,2.266,0,0,1,.469,3.1,2.231,2.231,0,0,1-3.181.443l-2.735-2.146a2.231,2.231,0,0,1,.327,3.2,2.266,2.266,0,0,1-3.123.282l-2.719-2.133a2.231,2.231,0,0,1,.327,3.2,2.266,2.266,0,0,1-3.123.282l-10.824-8.492A43.531,43.531,0,0,1,83.258,188a25.532,25.532,0,1,0,39.667,30.805" transform="translate(-39.659 -155.08)" fill="none" stroke="#dfe527" stroke-linecap="round" stroke-linejoin="round" stroke-width="2"/>
  </g>
</svg>
